<?xml version="1.0" standalone="no"?><!DOCTYPE svg PUBLIC "-//W3C//DTD SVG 1.1//EN" "http://www.w3.org/Graphics/SVG/1.1/DTD/svg11.dtd"><svg t="1601695979772" class="icon" viewBox="0 0 1024 1024" version="1.1" xmlns="http://www.w3.org/2000/svg" p-id="2102" xmlns:xlink="http://www.w3.org/1999/xlink" width="200" height="200"><defs><style type="text/css"></style></defs><path d="M896 0 128 0C57.344 0 0 57.344 0 128l0 768c0 70.656 57.344 128 128 128l768 0c70.656 0 128-57.344 128-128L1024 128C1024 57.344 966.656 0 896 0zM960 896c0 35.392-28.608 64-64 64L128 960c-35.328 0-64-28.608-64-64L64 128c0-35.328 28.672-64 64-64l768 0c35.392 0 64 28.672 64 64L960 896z" p-id="2103"></path><path d="M421.568 783.552 149.952 512 240.512 421.44 421.504 602.496 783.552 240.448 874.048 331.008Z" p-id="2104" class="checked"></path></svg>