<?xml version="1.0" standalone="no"?><!DOCTYPE svg PUBLIC "-//W3C//DTD SVG 1.1//EN" "http://www.w3.org/Graphics/SVG/1.1/DTD/svg11.dtd"><svg t="1600955775732" class="icon" viewBox="0 0 1024 1024" version="1.1" xmlns="http://www.w3.org/2000/svg" p-id="3885" xmlns:xlink="http://www.w3.org/1999/xlink" width="200" height="200"><defs><style type="text/css"></style></defs><path d="M851.2 742.4V454.4c0-166.4-121.6-307.2-281.6-332.8v-64C569.6 25.6 544 0 512 0s-57.6 25.6-57.6 57.6v64c-160 25.6-281.6 166.4-281.6 332.8v281.6c-32 0-57.6 25.6-57.6 57.6s25.6 57.6 57.6 57.6h684.8c32 0 57.6-25.6 57.6-57.6-6.4-25.6-32-51.2-64-51.2z m-108.8 0H281.6V454.4c0-128 102.4-230.4 230.4-230.4s230.4 102.4 230.4 230.4v288z m-172.8 166.4H454.4c-32 0-57.6 25.6-57.6 57.6s25.6 57.6 57.6 57.6h115.2c32 0 57.6-25.6 57.6-57.6s-25.6-57.6-57.6-57.6z" p-id="3886" fill="#515151"></path></svg>