<?xml version="1.0" standalone="no"?><!DOCTYPE svg PUBLIC "-//W3C//DTD SVG 1.1//EN" "http://www.w3.org/Graphics/SVG/1.1/DTD/svg11.dtd"><svg t="1601572720734" class="icon" viewBox="0 0 1024 1024" version="1.1" xmlns="http://www.w3.org/2000/svg" p-id="3978" xmlns:xlink="http://www.w3.org/1999/xlink" width="200" height="200"><defs><style type="text/css"></style></defs><path d="M784.839111 568.888889a56.888889 56.888889 0 0 1 42.837333 94.378667l-272.839111 311.751111a56.888889 56.888889 0 0 1-85.674666 0L196.323556 663.324444A56.888889 56.888889 0 0 1 239.160889 568.888889z" fill="#bfbfbf" p-id="3979" class="decri"></path><path d="M549.546667 43.576889a56.888889 56.888889 0 0 1 5.347555 5.347555l272.839111 311.808A56.888889 56.888889 0 0 1 784.839111 455.111111H239.160889A56.888889 56.888889 0 0 1 196.266667 360.732444L469.162667 48.981333A56.888889 56.888889 0 0 1 549.546667 43.52z" fill="#bfbfbf" p-id="3980" class="incre"></path></svg>